<?xml version="1.0" encoding="UTF-8" standalone="no"?>
<!-- Created with Inkscape (http://www.inkscape.org/) -->
<svg
   xmlns:svg="http://www.w3.org/2000/svg"
   xmlns="http://www.w3.org/2000/svg"
   version="1.0"
   width="180.05"
   height="24.549999"
   id="svg2443"
   xml:space="preserve"><defs
     id="defs2446"><clipPath
       id="clipPath2460"><path
         d="M 0,793 L 612,793 L 612,0 L 0,0 L 0,793 z"
         id="path2462" /></clipPath><clipPath
       id="clipPath2466"><path
         d="M 0,793.74 L 612.24,793.74 L 612.24,0.06 L 0,0.06 L 0,793.74 z"
         id="path2468" /></clipPath><clipPath
       id="clipPath2480"><path
         d="M 0,793 L 612,793 L 612,0 L 0,0 L 0,793 z"
         id="path2482" /></clipPath><clipPath
       id="clipPath2486"><path
         d="M 0,793.74 L 612.24,793.74 L 612.24,0.06 L 0,0.06 L 0,793.74 z"
         id="path2488" /></clipPath><clipPath
       id="clipPath2520"><path
         d="M 232.882,738.881 L 375.58,738.881 L 375.58,717.039 L 232.882,717.039 L 232.882,738.881 z"
         id="path2522" /></clipPath><clipPath
       id="clipPath2532"><path
         d="M 0,793 L 612,793 L 612,0 L 0,0 L 0,793 z"
         id="path2534" /></clipPath><clipPath
       id="clipPath2538"><path
         d="M 0,793.74 L 612.24,793.74 L 612.24,0.06 L 0,0.06 L 0,793.74 z"
         id="path2540" /></clipPath></defs><g
     transform="matrix(1.25,0,0,-1.25,-291.27031,921.2275)"
     id="g2452"><path
       d="M 243.65314,718.75549 L 234.14614,718.75549 C 234.11214,718.95149 234.11314,719.20949 234.15114,719.44049 C 236.82814,719.59549 237.40714,719.82649 237.40714,721.64549 L 237.40714,733.74149 C 237.40714,734.87449 237.03414,735.05549 235.83614,735.05549 L 234.74514,735.05549 C 234.69814,735.37549 234.70214,735.55949 234.80714,735.68149 C 235.08114,736.00549 236.21914,736.06649 238.22014,736.06649 L 243.42314,736.06649 C 250.34014,736.06649 253.84714,733.15449 253.84714,727.41249 C 253.84714,721.74949 250.32114,718.75549 243.65314,718.75549 z M 240.45014,734.87649 C 240.36114,734.87649 240.28914,734.80449 240.28914,734.71549 L 240.28914,721.82449 C 240.28914,720.10449 240.98914,719.84449 243.39714,719.84449 C 247.02514,719.84449 250.73414,720.68549 250.73414,726.92449 C 250.73414,732.05249 248.01914,734.87649 243.08914,734.87649 L 240.45014,734.87649"
       id="path2492"
       style="fill:#ffffff;fill-opacity:1;fill-rule:nonzero;stroke:none" /><path
       d="M 274.74114,718.75549 L 266.56514,718.75549 C 266.53114,718.95049 266.53314,719.20749 266.57014,719.43749 C 268.48814,719.49549 269.18214,719.62749 269.40314,719.97149 C 269.53814,720.18249 269.46714,720.42349 269.37914,720.63049 L 267.76414,724.50149 C 267.73914,724.56149 267.68114,724.59949 267.61514,724.59949 L 261.00414,724.59949 C 260.93714,724.59949 260.87714,724.55849 260.85414,724.49649 L 259.80314,721.70249 C 259.44014,720.77149 259.30614,720.27049 259.53014,719.94349 C 259.73214,719.64749 260.17314,719.58749 260.77314,719.58749 L 262.84814,719.58749 C 262.90914,719.26949 262.89014,719.04249 262.78714,718.91349 C 262.70414,718.80749 262.55614,718.75549 262.33614,718.75549 L 255.13514,718.75549 C 255.10014,718.95349 255.10314,719.21749 255.14214,719.45049 C 257.06914,719.70749 257.35414,719.93249 258.05214,721.58249 L 263.12614,733.60249 C 263.97614,735.58949 264.26914,735.88849 265.36014,735.88849 L 266.22214,735.88849 C 266.31314,735.35949 266.50314,734.90849 266.88014,734.08449 L 272.79914,720.58149 C 273.11014,719.84749 273.46214,719.58749 274.81814,719.58749 L 275.27314,719.58749 C 275.32614,719.26249 275.30214,719.03449 275.20114,718.91049 C 275.11714,718.80649 274.96714,718.75549 274.74114,718.75549 z M 264.23414,732.67149 C 264.23414,732.67149 264.23314,732.67149 264.23214,732.67149 C 264.16714,732.67149 264.10814,732.63149 264.08414,732.57149 L 261.41914,725.90849 C 261.39914,725.85849 261.40514,725.80249 261.43414,725.75749 C 261.46414,725.71349 261.51414,725.68749 261.56814,725.68749 L 267.02614,725.68749 C 267.08014,725.68749 267.13014,725.71449 267.16014,725.75849 C 267.19014,725.80349 267.19514,725.86049 267.17414,725.90949 L 264.38114,732.57349 C 264.35714,732.63249 264.29814,732.67149 264.23414,732.67149"
       id="path2494"
       style="fill:#ffffff;fill-opacity:1;fill-rule:nonzero;stroke:none" /><path
       d="M 285.01714,718.75549 L 277.34514,718.75549 C 277.29714,718.95149 277.30014,719.21849 277.35614,719.45249 C 279.34214,719.78249 279.92514,720.07049 279.92514,721.23449 L 279.92514,733.48549 C 279.92514,734.55249 279.55214,734.72149 278.35414,734.72149 L 277.25614,734.72149 C 277.21114,734.98649 277.23814,735.17549 277.33714,735.29949 C 277.47114,735.46749 277.76214,735.55349 278.20114,735.55349 L 285.40414,735.55349 C 285.43714,735.36149 285.43614,735.06949 285.40114,734.86849 C 283.18514,734.69749 282.80714,734.14849 282.80714,732.99949 L 282.80714,720.82449 C 282.80714,719.75949 283.24714,719.58749 284.30114,719.58749 L 285.55514,719.58749 C 285.62814,719.24149 285.61814,719.02449 285.52814,718.90949 C 285.44814,718.80549 285.28114,718.75549 285.01714,718.75549"
       id="path2496"
       style="fill:#ffffff;fill-opacity:1;fill-rule:nonzero;stroke:none" /><path
       d="M 301.82514,718.68149 L 294.79714,732.58349 C 294.77014,732.63849 294.71414,732.67149 294.65414,732.67149 C 294.64314,732.67149 294.63214,732.67049 294.62214,732.66849 C 294.55114,732.65449 294.49814,732.59549 294.49314,732.52249 L 293.67314,721.01649 C 293.64114,720.59049 293.61514,720.25249 293.84514,720.00449 C 294.13814,719.68949 294.77614,719.58849 296.47414,719.58849 L 297.72914,719.58849 C 297.79914,719.24749 297.78714,719.02449 297.69314,718.90549 C 297.61414,718.80449 297.45814,718.75549 297.21614,718.75549 L 288.94214,718.75549 C 288.90514,718.98349 288.90514,719.21349 288.94314,719.44049 C 291.68714,719.60649 292.01514,720.14849 292.09814,721.32649 L 293.14914,733.36949 C 293.17614,733.66549 293.18614,733.97449 292.98014,734.20849 C 292.69514,734.53049 292.04214,734.66649 290.50314,734.71849 C 290.46014,734.95849 290.48914,735.14649 290.59114,735.27949 C 290.73214,735.46149 291.02214,735.55349 291.45114,735.55349 L 296.52914,735.55349 L 302.91814,723.31349 C 302.94714,723.26049 303.00014,723.22749 303.06114,723.22749 C 303.06214,723.22749 303.06314,723.22749 303.06414,723.22749 C 303.12414,723.22849 303.17914,723.26349 303.20614,723.31849 L 309.08214,735.55349 L 314.93114,735.55349 C 314.98414,735.32649 314.98314,735.09649 314.93014,734.86949 C 313.58014,734.77449 312.90514,734.59049 312.61014,734.24049 C 312.39314,733.98349 312.40514,733.66849 312.43514,733.39249 L 313.66414,720.88649 C 313.75214,719.93749 314.31014,719.84449 316.13614,719.60549 C 316.16614,719.21949 316.13514,719.00849 316.03114,718.89349 C 315.94814,718.80149 315.79614,718.75549 315.56714,718.75549 L 306.64314,718.75549 C 306.59014,718.98549 306.59114,719.21049 306.64414,719.43949 L 307.91414,719.51149 C 309.14214,719.58349 309.87314,719.70149 310.22514,720.11449 C 310.49814,720.43749 310.49314,720.90049 310.44614,721.35449 L 309.29514,732.52749 C 309.28714,732.59949 309.23414,732.65749 309.16214,732.66949 C 309.15314,732.67149 309.14414,732.67149 309.13514,732.67149 C 309.07414,732.67149 309.01714,732.63649 308.99014,732.58049 L 302.83914,719.66349 C 302.42214,718.83149 302.25314,718.69649 301.82514,718.68149"
       id="path2498"
       style="fill:#ffffff;fill-opacity:1;fill-rule:nonzero;stroke:none" /><path
       d="M 332.12014,718.75549 L 319.88414,718.75549 C 319.85714,718.96949 319.84214,719.20449 319.87914,719.44249 C 322.22014,719.59749 322.95514,719.95549 322.95514,721.74849 L 322.95514,733.48549 C 322.95514,734.55049 322.49214,734.72149 321.38514,734.72149 L 320.28614,734.72149 C 320.24214,734.98649 320.26814,735.17649 320.36714,735.30049 C 320.50114,735.46949 320.79214,735.55449 321.23214,735.55449 L 329.07414,735.55449 C 329.10714,735.36249 329.10614,735.06949 329.07114,734.86849 C 326.49614,734.71549 325.83814,734.45749 325.83814,732.66649 L 325.83814,721.33749 C 325.83814,720.22849 326.58614,720.10049 327.15114,720.10049 L 328.79114,720.10049 C 330.80014,720.10049 331.08514,720.31249 332.16614,722.62749 L 332.84314,724.12549 C 333.05914,724.12249 333.33114,724.08349 333.44814,723.91949 C 333.54314,723.78349 333.53814,723.56249 333.43214,723.26249 C 332.81914,721.51049 332.41214,720.11349 332.12014,718.75549"
       id="path2500"
       style="fill:#ffffff;fill-opacity:1;fill-rule:nonzero;stroke:none" /><path
       d="M 350.13714,718.75649 L 336.24414,718.75649 C 336.19314,718.98349 336.19414,719.21349 336.24614,719.43949 C 338.90914,719.59649 339.48514,719.82449 339.48514,721.64549 L 339.48514,733.48549 C 339.48514,734.55249 339.11814,734.72349 337.94114,734.72349 L 336.85114,734.72349 C 336.82114,735.01249 336.85514,735.19249 336.95914,735.31349 C 337.09614,735.47349 337.39214,735.55449 337.83814,735.55449 L 349.88814,735.55449 C 349.96014,734.54249 350.09814,733.39649 350.28814,732.22949 C 350.34714,731.86849 350.30814,731.60649 350.17414,731.44849 C 350.06414,731.31949 349.88014,731.25349 349.62614,731.25349 C 349.60914,731.25349 349.59014,731.25349 349.57114,731.25549 L 349.26914,732.30049 C 348.82214,733.90149 348.23014,734.38949 346.73214,734.38949 L 342.63114,734.38949 C 342.54214,734.38949 342.47014,734.31749 342.47014,734.22849 L 342.47014,727.64149 C 342.47014,727.55249 342.54214,727.48049 342.63114,727.48049 L 345.32214,727.48049 C 346.20314,727.48049 346.39814,727.82449 346.48014,728.54649 L 346.64014,729.71049 L 346.80814,729.71049 C 347.04014,729.71049 347.18114,729.67149 347.26414,729.58249 C 347.37114,729.46849 347.41214,729.24849 347.39114,728.90949 C 347.31414,727.31349 347.31314,725.60649 347.38514,723.96049 C 347.29714,723.93649 347.19614,723.92349 347.09414,723.92349 C 346.98614,723.92349 346.88614,723.93749 346.79714,723.96549 C 346.46714,725.89249 346.11914,726.23949 345.32214,726.23949 L 342.63114,726.23949 C 342.54214,726.23949 342.47014,726.16749 342.47014,726.07849 L 342.47014,721.56849 C 342.47014,720.55349 342.77814,720.09949 344.60414,720.09949 L 346.80814,720.09949 C 348.81814,720.09949 349.10214,720.31249 350.18314,722.62749 L 350.85814,724.12449 C 351.06714,724.12149 351.33014,724.08249 351.44814,723.91749 C 351.54814,723.77849 351.54814,723.55749 351.44814,723.25949 C 350.84514,721.54149 350.42714,720.10549 350.13714,718.75649"
       id="path2502"
       style="fill:#ffffff;fill-opacity:1;fill-rule:nonzero;stroke:none" /><path
       d="M 373.23114,718.34549 C 370.79914,718.34549 369.29814,718.89949 367.49314,720.46049 C 366.52114,721.31249 365.66814,722.34549 365.09314,723.36449 C 364.42514,724.56449 364.31714,724.67649 362.69714,724.67649 L 360.98014,724.67649 C 360.89114,724.67649 360.81914,724.60349 360.81914,724.51549 L 360.81914,720.74849 C 360.81914,719.84749 361.20614,719.58849 362.54414,719.58849 L 363.70414,719.58849 C 363.73114,719.21549 363.69814,719.01149 363.59614,718.89949 C 363.50914,718.80249 363.34914,718.75649 363.10714,718.75649 L 355.17214,718.75649 C 355.14914,718.92749 355.13014,719.18749 355.16914,719.44149 C 357.34414,719.60249 357.93814,719.90549 357.93814,721.56849 L 357.93814,733.40849 C 357.93814,734.53249 357.45314,734.72249 356.36714,734.72249 L 355.26514,734.72249 C 355.21314,734.97649 355.23514,735.16749 355.33114,735.30249 C 355.46214,735.48749 355.75514,735.59949 356.19814,735.63149 C 357.42414,735.73349 358.92314,735.73349 362.54414,735.73349 C 367.22514,735.73349 370.02014,733.60949 370.02014,730.05149 C 370.02014,727.99949 368.79514,726.30749 366.65914,725.40649 C 366.60814,725.38649 366.57114,725.33949 366.56214,725.28649 C 366.55314,725.23249 366.57114,725.17749 366.61214,725.14049 C 366.63214,725.12349 368.54814,723.36049 369.51514,722.57149 C 372.84614,719.89849 374.04214,719.59849 376.22614,719.58849 C 376.26414,719.35549 376.22114,719.16549 376.09914,719.00749 C 375.75914,718.56849 374.79414,718.34549 373.23114,718.34549 z M 360.98014,734.56949 C 360.89114,734.56949 360.81914,734.49749 360.81914,734.40849 L 360.81914,726.00249 C 360.81914,725.91349 360.89114,725.84149 360.98014,725.84149 L 362.21014,725.84149 C 364.61214,725.84149 366.95914,726.15249 366.95914,729.87149 C 366.95914,733.03349 365.28914,734.56949 361.85314,734.56949 L 360.98014,734.56949"
       id="path2504"
       style="fill:#ffffff;fill-opacity:1;fill-rule:nonzero;stroke:none" /><path
       d="M 235.83714,734.89549 L 234.60714,734.89549 C 234.42714,735.99749 234.53014,736.22749 238.22014,736.22749 L 243.42314,736.22749 C 250.80414,736.22749 254.00714,732.89549 254.00714,727.41149 C 254.00714,722.13249 250.98314,718.59549 243.65314,718.59549 L 234.01714,718.59549 C 233.94014,718.85149 233.94014,719.26149 234.01714,719.59449 C 236.76014,719.74849 237.24614,719.92849 237.24614,721.64549 L 237.24614,733.74249 C 237.24614,734.74049 236.99014,734.89549 235.83714,734.89549 z M 250.57314,726.92449 C 250.57314,731.84549 248.01014,734.71549 243.08914,734.71549 L 240.45014,734.71549 L 240.45014,721.82449 C 240.45014,720.26049 241.01414,720.00549 243.39714,720.00549 C 247.77914,720.00549 250.57314,721.41449 250.57314,726.92449"
       id="path2506"
       style="fill:#00345e;fill-opacity:1;fill-rule:nonzero;stroke:none" /><path
       d="M 266.36014,736.04849 C 266.43714,735.48449 266.61614,735.04849 267.02714,734.15149 L 272.94714,720.64549 C 273.22914,719.97949 273.51114,719.74849 274.81814,719.74849 L 275.40714,719.74849 C 275.56114,719.00549 275.40714,718.59549 274.74114,718.59549 L 266.43714,718.59549 C 266.36014,718.85149 266.36014,719.26149 266.43714,719.59449 C 269.23114,719.67149 269.51314,719.90249 269.23114,720.56849 L 267.61614,724.43849 L 261.00414,724.43849 L 259.95314,721.64549 C 259.36414,720.13349 259.36414,719.74849 260.77314,719.74849 L 262.97714,719.74849 C 263.15714,719.00549 262.97714,718.59549 262.33714,718.59549 L 255.00714,718.59549 C 254.93014,718.85149 254.93014,719.26149 255.00714,719.59449 C 256.98114,719.85149 257.21114,720.00549 257.90314,721.64549 L 262.97714,733.66449 C 263.82314,735.63849 264.15614,736.04849 265.36114,736.04849 L 266.36014,736.04849 z M 267.02714,725.84849 L 264.23314,732.51149 L 261.56814,725.84849 L 267.02714,725.84849"
       id="path2508"
       style="fill:#00345e;fill-opacity:1;fill-rule:nonzero;stroke:none" /><path
       d="M 285.53114,735.71449 C 285.60814,735.48449 285.60814,734.97149 285.53114,734.71549 C 283.30114,734.56149 282.96714,734.07449 282.96714,732.99849 L 282.96714,720.82549 C 282.96714,719.92849 283.22414,719.74849 284.30014,719.74849 L 285.68414,719.74849 C 285.86414,719.00549 285.78714,718.59549 285.01814,718.59549 L 277.22714,718.59549 C 277.12414,718.85149 277.12414,719.26149 277.22714,719.59449 C 279.27714,719.92849 279.76414,720.18449 279.76414,721.23549 L 279.76414,733.48549 C 279.76414,734.40849 279.53314,734.56149 278.35414,734.56149 L 277.12414,734.56149 C 276.97014,735.22849 277.12414,735.71449 278.20114,735.71449 L 285.53114,735.71449"
       id="path2510"
       style="fill:#00345e;fill-opacity:1;fill-rule:nonzero;stroke:none" /><path
       d="M 315.05414,735.71449 C 315.15714,735.38249 315.15714,735.04849 315.05414,734.71549 C 312.67114,734.56149 312.51714,734.15149 312.59414,733.40849 L 313.82414,720.90149 C 313.90114,720.08249 314.31114,720.00549 316.28514,719.74849 C 316.36114,719.00549 316.28514,718.59549 315.56714,718.59549 L 306.52014,718.59549 C 306.41814,718.92849 306.41814,719.26149 306.52014,719.59449 L 307.90514,719.67149 C 310.05714,719.79949 310.41614,720.08249 310.28714,721.33749 L 309.13514,732.51149 L 302.98414,719.59449 C 302.52214,718.67149 302.31714,718.51849 301.72814,718.51849 L 294.65414,732.51149 L 293.83414,721.00449 C 293.75714,720.00549 293.75714,719.74849 296.47414,719.74849 L 297.85814,719.74849 C 298.03714,719.00549 297.93514,718.59549 297.21714,718.59549 L 288.81114,718.59549 C 288.73414,718.92849 288.73414,719.26149 288.81114,719.59449 C 291.63014,719.74849 291.86114,720.26049 291.93714,721.33749 L 292.98914,733.38249 C 293.06514,734.20249 292.91114,734.48549 290.37414,734.56149 C 290.22014,735.15149 290.37414,735.71449 291.45114,735.71449 L 296.62714,735.71449 L 303.06014,723.38749 L 308.98114,735.71449 L 315.05414,735.71449"
       id="path2512"
       style="fill:#00345e;fill-opacity:1;fill-rule:nonzero;stroke:none" /><path
       d="M 329.20114,735.71449 C 329.27814,735.48449 329.27814,734.97149 329.20114,734.71549 C 326.51014,734.56149 325.99814,734.33149 325.99814,732.66549 L 325.99814,721.33749 C 325.99814,720.49249 326.43414,720.26049 327.15114,720.26049 L 328.79114,720.26049 C 330.68814,720.26049 330.94314,720.38949 332.02014,722.69549 L 332.73814,724.28449 C 333.48114,724.31049 333.86514,724.00349 333.58414,723.20849 C 333.04614,721.67149 332.58414,720.18449 332.25114,718.59549 L 319.74414,718.59549 C 319.69314,718.92849 319.66814,719.26149 319.74414,719.59449 C 322.23014,719.74849 322.79514,720.08249 322.79514,721.74749 L 322.79514,733.48549 C 322.79514,734.40849 322.46114,734.56149 321.38414,734.56149 L 320.15414,734.56149 C 320.00114,735.22849 320.15414,735.71449 321.23114,735.71449 L 329.20114,735.71449"
       id="path2514"
       style="fill:#00345e;fill-opacity:1;fill-rule:nonzero;stroke:none" /><g
       transform="translate(0.9431409,-0.7545127)"
       id="g2516"><g
         clip-path="url(#clipPath2520)"
         id="g2518"><path
           d="M 349.095,736.469 C 349.171,735.316 349.324,734.112 349.504,733.01 C 349.632,732.215 349.324,731.78 348.505,731.857 L 348.171,733.01 C 347.735,734.573 347.197,734.984 345.788,734.984 L 341.687,734.984 L 341.687,728.396 L 344.379,728.396 C 345.147,728.396 345.301,728.653 345.378,729.32 L 345.557,730.626 L 345.865,730.626 C 346.377,730.626 346.66,730.447 346.607,729.653 C 346.531,728.038 346.531,726.269 346.607,724.604 C 346.377,724.501 345.993,724.476 345.711,724.604 C 345.378,726.603 345.045,726.833 344.379,726.833 L 341.687,726.833 L 341.687,722.323 C 341.687,721.4 341.918,721.015 343.661,721.015 L 345.865,721.015 C 347.762,721.015 348.018,721.144 349.095,723.45 L 349.812,725.039 C 350.555,725.065 350.914,724.732 350.657,723.963 C 350.145,722.502 349.658,720.939 349.324,719.35 L 335.178,719.35 C 335.076,719.683 335.076,720.016 335.178,720.349 C 337.894,720.503 338.381,720.683 338.381,722.4 L 338.381,734.24 C 338.381,735.163 338.15,735.316 336.997,735.316 L 335.767,735.316 C 335.665,735.983 335.767,736.469 336.895,736.469 L 349.095,736.469"
           id="path2524"
           style="fill:#00345e;fill-opacity:1;fill-rule:nonzero;stroke:none" /><path
           d="M 355.424,735.316 L 354.194,735.316 C 354.014,735.983 354.194,736.469 355.244,736.546 C 356.475,736.649 358.013,736.649 361.601,736.649 C 366.521,736.649 369.238,734.317 369.238,730.806 C 369.238,728.653 367.905,726.91 365.778,726.014 C 365.778,726.014 367.7,724.245 368.674,723.45 C 372.057,720.734 373.185,720.503 375.414,720.503 C 375.646,719.606 375.005,718.94 372.288,718.94 C 369.904,718.94 368.341,719.453 366.444,721.093 C 365.598,721.836 364.676,722.86 364.01,724.04 C 363.369,725.193 363.318,725.27 361.754,725.27 L 360.037,725.27 L 360.037,721.503 C 360.037,720.76 360.268,720.503 361.601,720.503 L 362.907,720.503 C 362.984,719.76 362.907,719.35 362.164,719.35 L 354.091,719.35 C 354.04,719.631 354.014,720.016 354.091,720.349 C 356.321,720.503 356.834,720.76 356.834,722.323 L 356.834,734.163 C 356.834,735.163 356.475,735.316 355.424,735.316 z M 361.267,726.757 C 363.804,726.757 365.855,727.167 365.855,730.626 C 365.855,734.086 363.804,735.163 360.909,735.163 L 360.037,735.163 L 360.037,726.757 L 361.267,726.757"
           id="path2526"
           style="fill:#00345e;fill-opacity:1;fill-rule:nonzero;stroke:none" /></g></g></g></svg>